# xmcd
#
# Track frame offsets: 
#        150
#        9438
#        23387
#        33030
#        52221
#        59533
#        68241
#        84530
#        96128
#        112266
#        123391
#        134644
#        146151
#        157259
#        167465
#        178089
#
# Disc length: 2613 seconds
#
# Revision: 0
# Processed by: cddbd v1.5.2PL0 Copyright (c) Steve Scherf et al.
# Submitted via: ExactAudioCopy v0.95b4
#
DISCID=e20a3310
DTITLE=Duffy Power - Vampers And Champers
DYEAR=2006
DGENRE=Blues
TTITLE0=Rosie
TTITLE1=Leaving Blues
TTITLE2=It's Funny
TTITLE3=God Bless The Child
TTITLE4=Comin' Round No More
TTITLE5=Give Me One
TTITLE6=Mary Open The Door
TTITLE7=Help Me
TTITLE8=Louisiana Blues
TTITLE9=Little Boy Blue
TTITLE10=Exactly Like You
TTITLE11=One Night
TTITLE12=Ther You Go
TTITLE13=Red White And Blue
TTITLE14=Little Girl
TTITLE15=I Want You To Love Me
EXTD=
EXTT0=
EXTT1=
EXTT2=
EXTT3=
EXTT4=
EXTT5=
EXTT6=
EXTT7=
EXTT8=
EXTT9=
EXTT10=
EXTT11=
EXTT12=
EXTT13=
EXTT14=
EXTT15=
PLAYORDER=
